<svg version="1.1" xmlns="http://www.w3.org/2000/svg" xmlns:xlink="http://www.w3.org/1999/xlink" width="543" height="377" viewBox="0,0,543,377"><g transform="translate(35.5,5)"><g data-paper-data="{&quot;isPaintingLayer&quot;:true}" fill-rule="nonzero" stroke-linecap="butt" stroke-linejoin="miter" stroke-miterlimit="10" stroke-dasharray="" stroke-dashoffset="0" style="mix-blend-mode: normal"><path d="M-35.5,372v-377h543v377z" fill="#00d985" stroke="none" stroke-width="0"/><path d="M-21.14933,287.30688l70.15087,-144.05981l31.71959,15.44606l-70.15087,144.05981z" fill="#d8d100" stroke="none" stroke-width="0"/><path d="M-7.14933,356.30688l70.15086,-144.05981l31.7196,15.44606l-70.15087,144.05981z" fill="#d8d100" stroke="none" stroke-width="0"/><path d="M474.00154,294.75293l-70.15086,-144.05981l31.7196,-15.44606l70.15086,144.05981z" data-paper-data="{&quot;index&quot;:null}" fill="#d8d100" stroke="none" stroke-width="0"/><path d="M460.00154,363.75294l-70.15086,-144.05981l31.7196,-15.44606l70.15086,144.05981z" data-paper-data="{&quot;index&quot;:null}" fill="#d8d100" stroke="none" stroke-width="0"/><path d="M199.5,208v-71h73v71z" fill="#73ff00" stroke="#000000" stroke-width="5.5"/><path d="M169.5,160v-7h6v7z" fill="none" stroke="#000000" stroke-width="5.5"/><path d="M169.5,151v-5h29v5z" fill="none" stroke="#000000" stroke-width="5.5"/><path d="M174.5,166v-6h7v6z" fill="none" stroke="#000000" stroke-width="5.5"/><path d="M180.5,173v-7h9v7z" fill="none" stroke="#000000" stroke-width="5.5"/><path d="M187.5,176v-5h7v5z" fill="none" stroke="#000000" stroke-width="5.5"/><path d="M275.5,154v-5h29v5z" data-paper-data="{&quot;index&quot;:null}" fill="none" stroke="#000000" stroke-width="5.5"/><path d="M292.5,164v-6h7v6z" data-paper-data="{&quot;index&quot;:null}" fill="none" stroke="#000000" stroke-width="5.5"/><path d="M284.5,171v-7h9v7z" data-paper-data="{&quot;index&quot;:null}" fill="none" stroke="#000000" stroke-width="5.5"/><path d="M279.5,174v-5h7v5z" data-paper-data="{&quot;index&quot;:null}" fill="none" stroke="#000000" stroke-width="5.5"/><path d="M219.5,278v-72h32v72z" fill="#73ff00" stroke="#000000" stroke-width="5.5"/><path d="M188.5,308v-34h100v34z" fill="#73ff00" stroke="#000000" stroke-width="5.5"/><path d="M268.5,174v-4h3v4z" fill="none" stroke="#000000" stroke-width="5.5"/><path d="M270.5,172v-1h13v1z" fill="none" stroke="#000000" stroke-width="5.5"/><path d="M173.28224,168.73925c-1.73925,-5.21776 3.47851,-6.95701 3.47851,-6.95701l2.91581,-0.97194c-1.78753,-1.35749 -3.38778,-2.82177 -5.63623,-3.89096c0,0 -4.91935,-2.45967 -2.45967,-7.37902c2.45967,-4.91935 7.37902,-2.45967 7.37902,-2.45967c0.80535,0.41612 1.63617,0.7889 2.45365,1.18439c0.67809,-0.90503 1.48972,-1.66211 2.49146,-2.11425c8.03802,-3.62798 9.1114,-0.09996 12.8486,4.36227c3.06596,3.66077 4.60395,4.09434 3.01062,10.08075c-0.52262,1.96356 -1.39002,3.47311 -2.49521,4.66416c0.46512,0.80717 0.7312,1.74353 0.7312,2.74203c0,3.03757 -2.46243,5.5 -5.5,5.5c-1.93937,0 -3.6443,-1.00377 -4.6236,-2.52013l-0.6214,-0.9321c-1.36389,0.37005 -2.72325,0.73374 -4.01575,1.16999l-3,1c0,0 -5.21776,1.73925 -6.95701,-3.47851z" fill="#000000" stroke="none" stroke-width="0.5"/><path d="M274.5,175.5c-0.69514,0 -1.36017,-0.12896 -1.97245,-0.36427c-1.57775,-0.53606 -3.52755,-1.861 -3.52755,-5.13573c0,-3.27474 1.9498,-4.59967 3.52755,-5.13573c0.31242,-0.12006 0.63856,-0.21244 0.97544,-0.27413c-0.06638,-2.12667 -0.90978,-4.40978 0.1478,-6.18536c2.33539,-3.9209 11.67774,-7.11834 14.61545,-8.43074c0,0 5.02596,-2.23376 7.25973,2.7922c2.23376,5.02596 -2.7922,7.25973 -2.7922,7.25973c-0.56631,0.25026 -1.13017,0.5065 -1.69304,0.76516c1.19806,1.00891 1.95928,2.52 1.95928,4.20887c0,3.03757 -2.46243,5.5 -5.5,5.5c-1.39521,0 -2.66908,-0.51951 -3.63873,-1.37563c-0.07113,0.33228 -0.16281,0.65962 -0.27994,0.98039c-0.56604,1.5502 -2.12817,2.52289 -3.19225,3.78433l-3.08646,0.84428c-0.82076,0.48702 -1.77904,0.76664 -2.80263,0.76664z" fill="#000000" stroke="none" stroke-width="0.5"/></g></g></svg>